<?xml version="1.0" standalone="no"?>
<!DOCTYPE svg PUBLIC "-//W3C//DTD SVG 20010904//EN"
 "http://www.w3.org/TR/2001/REC-SVG-20010904/DTD/svg10.dtd">
<svg version="1.0" xmlns="http://www.w3.org/2000/svg"
 width="903.000000pt" height="903.000000pt" viewBox="0 0 903.000000 903.000000"
 preserveAspectRatio="xMidYMid meet">
<metadata>
Created by potrace 1.14, written by Peter Selinger 2001-2017
</metadata>
<g transform="translate(0.000000,903.000000) scale(0.100000,-0.100000)"
fill="#000000" stroke="none">
<path d="M4377 8604 c-1 -1 -49 -5 -107 -8 -137 -8 -199 -14 -290 -27 -41 -6
-91 -13 -110 -15 -283 -40 -685 -158 -993 -293 -26 -11 -48 -20 -50 -20 -6 2
-322 -164 -390 -205 -367 -218 -707 -499 -977 -805 -36 -41 -72 -82 -80 -90
-8 -9 -27 -33 -42 -53 -15 -20 -33 -42 -40 -50 -8 -7 -21 -24 -31 -38 -9 -14
-35 -50 -57 -80 -141 -193 -252 -377 -365 -605 -117 -239 -264 -634 -289 -777
-3 -15 -7 -31 -10 -36 -5 -9 -60 -278 -71 -352 -4 -25 -9 -52 -10 -60 -2 -14
-13 -99 -21 -175 -23 -211 -23 -625 1 -815 2 -19 7 -60 10 -90 31 -297 150
-757 270 -1042 19 -46 35 -86 35 -89 0 -4 -57 -7 -128 -8 -116 0 -128 -2 -144
-21 -17 -21 -14 -52 6 -69 7 -6 81 -12 165 -13 l153 -3 62 -120 c72 -139 104
-196 142 -257 16 -23 35 -55 44 -70 8 -16 52 -81 97 -145 511 -733 1238 -1274
2088 -1555 163 -54 452 -126 570 -143 22 -3 47 -7 55 -10 8 -2 38 -6 65 -10
28 -3 68 -8 90 -11 76 -10 100 -13 205 -20 200 -14 549 -8 715 12 75 8 306 42
335 49 24 5 44 9 100 20 114 21 364 93 507 144 186 67 276 105 463 198 575
285 1081 710 1467 1233 129 175 234 345 352 570 l60 115 152 3 c84 1 158 7
165 13 20 17 23 48 6 69 -16 19 -29 21 -150 21 -99 1 -131 4 -124 12 5 7 23
50 41 97 18 47 37 96 43 110 62 152 158 507 193 720 3 19 8 42 10 50 2 8 6 38
9 65 4 28 9 66 11 85 32 216 38 695 10 905 -2 17 -6 53 -9 80 -9 81 -17 139
-21 161 -3 12 -7 39 -11 60 -35 230 -144 608 -249 859 -47 115 -148 323 -198
410 -22 39 -51 90 -65 115 -102 181 -326 486 -482 654 -365 398 -767 701
-1220 922 -85 42 -168 82 -185 89 -16 7 -50 22 -75 33 -25 11 -56 23 -70 27
-14 4 -38 13 -55 21 -104 47 -475 152 -650 183 -33 6 -71 13 -85 16 -25 5 -60
11 -115 20 -16 2 -61 7 -100 11 -38 3 -77 7 -85 9 -40 11 -533 28 -543 19z"/>
<path d="M75 2870 c-49 -6 -73 -42 -51 -75 12 -18 26 -20 166 -23 104 -2 157
1 166 9 18 15 18 63 0 78 -15 12 -210 20 -281 11z"/>
<path d="M8740 2872 c-24 -2 -50 -8 -57 -14 -20 -16 -16 -66 6 -78 29 -15 306
-13 318 3 20 25 22 47 5 66 -15 18 -31 21 -122 23 -58 2 -125 2 -150 0z"/>
</g>
</svg>
